<?xml version="1.0" encoding="UTF-8" standalone="no"?>
<svg
   xmlns:dc="http://purl.org/dc/elements/1.1/"
   xmlns:cc="http://creativecommons.org/ns#"
   xmlns:rdf="http://www.w3.org/1999/02/22-rdf-syntax-ns#"
   xmlns:svg="http://www.w3.org/2000/svg"
   xmlns="http://www.w3.org/2000/svg"
   xmlns:xlink="http://www.w3.org/1999/xlink"
   xml:space="preserve"
   enable-background="new 0 0 800 600"
   viewBox="0 0 397.34195 363.62228"
   height="363.62228"
   width="397.34195"
   y="0px"
   x="0px"
   id="Layer_1"
   version="1.1"><metadata
     id="metadata4282"><rdf:RDF><cc:Work
         rdf:about=""><dc:format>image/svg+xml</dc:format><dc:type
           rdf:resource="http://purl.org/dc/dcmitype/StillImage" /><dc:title></dc:title></cc:Work></rdf:RDF></metadata><defs
     id="defs4280" /><image
     xlink:href="Screen Shot 2016-04-29 at 1.21.41 AM.png"
     display="none"
     overflow="visible"
     width="601"
     height="735"
     id="image4264"
     style="display:none;overflow:visible"
     x="-96.5"
     y="-120.62926" /><g
     transform="translate(-195.5,-52.629259)"
     id="g4266"><path
       style="fill:#ff4b55"
       id="path4268"
       d="m 245.942,109.81 c 3.029,-0.092 6.558,0.69 8.558,4.19 4,7 1.5,60 3,58 1.5,-2 14.533,-6.587 14.624,-8.495 0.616,-12.896 3.873,-63.278 17.376,-68.505 15.5,-6 25.5,2.5 27,30.5 1.5,28 -25.5,46.5 -25.5,46.5 0,0 0,3 -1.5,36.5 -1.5,33.5 5.5,29.5 14,24.5 8.5,-5 8.5,-0.5 -1,10 -9.5,10.5 -23.5,4.5 -31,-6.5 -7.5,-11 -2,-50.5 -2,-50.5 l -12.5,8.5 c 0,0 0,14 -5.5,35.5 -5.5,21.5 -20,36 -34.5,33.5 -14.5,-2.5 -21.5,-21 -21.5,-43 0,-22 37.5,-39.5 37.5,-39.5 0,0 -0.142,-7.764 0.934,-41.098 1.076,-33.334 8.98,-30 12.008,-30.092 z M 222,227 c -3,16 2,22 6,23 4,1 4.5,-43.5 4.5,-43.5 0,0 -7.5,4.5 -10.5,20.5 z m 72,-71.5 c 0,0 19.5,-17.5 10.5,-44.5 0,0 -9,12 -10.5,44.5 z" /><path
       style="fill:#ff4b55"
       id="path4270"
       d="m 339.014,160.996 c -3.333,3.667 -6.333,11.667 -10.333,23.667 -4,12 -3.667,29.333 2.667,30.667 6.334,1.334 8.667,-2 13.333,-12.667 4.666,-10.667 1.33,-41.333 1.664,-44.333 0.334,-3 3.667,-5.333 9,-5.333 5.333,0 8,5.667 8,5.667 0,9 -1,39.667 2.667,43.333 3.667,3.666 13.333,-20.333 13.333,-20.333 0.334,-3 -0.667,-15.333 5,-29.667 5.667,-14.334 17.666,-19.333 25,-19.667 7.334,-0.334 14,3 14,9 0,6 1.666,14 -6.667,15 -8.333,1 -6.667,-9.667 -6.667,-9.667 -1.334,-2.333 -4.333,-4.667 -6.333,20.333 -2,25 2.667,27 7.333,28.333 4.666,1.333 12.667,-9.667 20,-23.333 7.333,-13.666 15.999,-43.667 15.999,-43.667 0,0 -2.334,-46 -1.334,-60 1,-14 8,-16 14.334,-15.667 6.334,0.333 14.333,13 17,25.333 2.667,12.333 -10.667,42.333 -10.667,42.333 1.667,6.667 3.998,36.333 3.998,36.333 5,-5 15,-29.333 15,-29.333 0,0 -2.334,2 -5,-3.667 -2.666,-5.667 4.333,-19.333 12.666,-20 8.333,-0.667 11,1.667 14.334,11.667 3.334,10 -19,40 -19,40 0,0 -2.334,-1 11.333,1.667 13.667,2.667 25.98,10.31 39.333,13.333 13.353,3.023 23.667,1 36,-4.667 12.333,-5.667 19,2.333 17.667,9.667 -1.333,7.334 -8.994,16.747 -23.333,20.333 -14.339,3.586 -35.23,-0.764 -42.921,-5.263 -7.691,-4.499 -16.938,-13.14 -26.178,-19.021 -9.24,-5.881 -21.242,-7.381 -21.242,-7.38 -1.666,1.333 -8.334,6.667 -8.334,6.667 0,0 -0.666,6 -0.333,11.333 0.333,5.333 -6.333,11.333 -9.667,14 -3.334,2.667 -9.332,-0.999 -10.999,-2.999 -1.667,-2 -2,-23.333 -2,-23.333 0,0 -11.667,19.333 -13.667,22.333 -2,3 -9.666,12.667 -23.333,15 -13.667,2.333 -24.332,-6.666 -24.332,-6.666 0,0 -5.334,12.333 -14,15.667 -8.666,3.334 -22.667,-7 -22.667,-7 -2.667,11.333 -10,19.333 -24.667,17.667 -14.667,-1.666 -18.333,-14.333 -18,-27.667 0.333,-13.334 7.333,-28 17.333,-40.333 10,-12.333 19.333,-6 19.333,-6 2.022,0.947 -1.32,4.664 -4.653,8.33 z M 465.333,90.333 c 0,0 4.668,-16.667 1.334,-19.333 -3.334,-2.666 -1.334,19.333 -1.334,19.333 z" /><path
       style="fill:#ff4b55"
       id="path4272"
       d="m 266.667,275 c 0,0 -0.667,19.333 11.333,15.333 12,-4 11.333,-19.333 8,-26 -3.333,-6.667 -24,-10.667 -32,-4 -8,6.667 -27.333,24.667 -30,57.334 -2.667,32.667 3.333,54.667 19.333,68.667 16,14 31.333,5.332 38,-1.334 6.667,-6.666 22,-40.666 24,-46 2,-5.333 1.333,-21.333 -10.667,1.334 -12,22.666 -22,47.999 -30.667,30.666 -8.667,-17.333 -12.667,-32 -12,-55.333 0.667,-23.333 4,-39.333 8.667,-42 4.667,-2.667 6.001,1.333 6.001,1.333 z" /><path
       style="fill:#ff4b55"
       id="path4274"
       d="m 340,297 c -4,2.667 -12,20.667 -9.333,43.334 C 333.334,363 350,339 350,339 c 0,0 -2.667,-9.333 -4,-23.333 -1.333,-14 2,-21.333 4.667,-26.667 2.667,-5.334 7.333,-2 10.667,0.667 3.334,2.667 3.333,16 4.667,35.333 1.334,19.333 8,15.334 9.333,10 1.333,-5.334 4,-13.333 7.333,-30.666 3.333,-17.334 -0.666,-8.667 6.667,-22.667 7.333,-14 19.333,-4 19.333,-4 12.666,-29.333 30,-12 30,-12 8,-17.333 22.667,-18 30.667,-11.333 8,6.667 8,43.333 10.667,41.333 2.667,-2 12.666,-40 12.666,-40 0.666,-4.667 -4.666,-14 -0.666,-18 4,-4 16.666,-2.667 16.666,-2.667 4.666,-16 18.667,-14.667 26.667,-12.667 22.331,4.999 23.664,39.333 18.667,52 -7.003,21.666 -36.667,35.333 -36.667,35.333 0.667,2.667 0,80 0.667,96 0.667,16 -4.667,10 -12.667,6.667 -8,-3.333 -7.333,-44 -7.333,-63.334 0,-19.334 -3.334,-66.667 -3.334,-66.667 0,0 -1.333,6 -8.666,22 -7.333,16 -13.334,16.666 -20.667,14 -7.333,-2.667 -6,-10.667 -6.667,-20.667 -0.667,-10 -2,-22 -6,-29.333 -4,-7.333 -9.333,1.333 -9.333,1.333 0,0 3.333,43.333 0.667,50.667 -2.666,7.333 -10.667,10 -14,7.333 -3.333,-2.667 0.666,-36 -6.667,-47.333 -7.333,-11.333 -10,10 -10,10 1.333,5.333 4.667,33.333 -2,44 -6.667,10.668 -14.667,11.335 -13.333,-1.332 1.334,-12.667 -3.334,-14 -3.334,-14 0,14 -12,26.667 -18.666,32 -6.666,5.333 -22,-4.666 -22,-4.666 -8.667,25.334 -26.667,18 -33.333,14.666 -6.666,-3.334 -10,-12 -8.667,-34.666 1.333,-22.667 11.333,-29.334 17.333,-36 6,-6.666 16,-0.667 16,-0.667 0,0 -1.334,4.666 -5.334,7.333 z m 177.334,-3.333 c 0,0 14.667,-2.667 16,-20 1.333,-17.333 -2.667,-42.667 -8.667,-40.667 -6,2 -11.332,7.333 -10.666,24 0.666,16.667 4,24.667 5.333,26.667 1.333,2 -6,2 -4,6 2,4 -8,4.667 2,4 z" /></g><path
     style="fill:#ff4b55"
     id="path4276"
     d="m 324.5,29.370741 c 0,0 13,-8 13,-23.0000001 0,0 5,23.0000001 15,22.0000001 0,0 -14,11 -14,28 0,0 -5,-28 -14,-27 z" /></svg>