<?xml version="1.0" encoding="UTF-8" standalone="no"?>
<!-- Created with Inkscape (http://www.inkscape.org/) -->

<svg
   xmlns:dc="http://purl.org/dc/elements/1.1/"
   xmlns:cc="http://creativecommons.org/ns#"
   xmlns:rdf="http://www.w3.org/1999/02/22-rdf-syntax-ns#"
   xmlns:svg="http://www.w3.org/2000/svg"
   xmlns="http://www.w3.org/2000/svg"
   xmlns:sodipodi="http://sodipodi.sourceforge.net/DTD/sodipodi-0.dtd"
   xmlns:inkscape="http://www.inkscape.org/namespaces/inkscape"
   version="1.2"
   width="450.43332"
   height="279.09225"
   id="svg2"
   inkscape:version="0.48.4 r9939"
   sodipodi:docname="hack-strikes-back-flat-die-cut.svg">
  <sodipodi:namedview
     pagecolor="#ffffff"
     bordercolor="#666666"
     borderopacity="1"
     objecttolerance="10"
     gridtolerance="10"
     guidetolerance="10"
     inkscape:pageopacity="0"
     inkscape:pageshadow="2"
     inkscape:window-width="2560"
     inkscape:window-height="1440"
     id="namedview3004"
     showgrid="false"
     inkscape:zoom="2"
     inkscape:cx="363.11468"
     inkscape:cy="120.68166"
     inkscape:window-x="1920"
     inkscape:window-y="0"
     inkscape:window-maximized="0"
     inkscape:current-layer="layer1"
     fit-margin-top="0"
     fit-margin-left="0"
     fit-margin-right="0"
     fit-margin-bottom="0"
     units="in"
     inkscape:snap-grids="true"
     inkscape:snap-page="true"
     showguides="true"
     inkscape:guide-bbox="true"
     inkscape:snap-bbox="true"
     inkscape:bbox-paths="true"
     inkscape:bbox-nodes="true"
     inkscape:snap-bbox-midpoints="true">
    <sodipodi:guide
       orientation="1,0"
       position="134.69218,240.11792"
       id="guide3349" />
  </sodipodi:namedview>
  <defs
     id="defs4">
    <linearGradient
       id="linearGradient4075">
      <stop
         id="stop4077"
         style="stop-color:#ffffff;stop-opacity:1"
         offset="0" />
    </linearGradient>
  </defs>
  <metadata
     id="metadata7">
    <rdf:RDF>
      <cc:Work
         rdf:about="">
        <dc:format>image/svg+xml</dc:format>
        <dc:type
           rdf:resource="http://purl.org/dc/dcmitype/StillImage" />
        <dc:title />
      </cc:Work>
    </rdf:RDF>
  </metadata>
  <g
     id="layer1"
     transform="translate(-48.572426,-420.5799)">
    <path
       inkscape:connector-curvature="0"
       style="fill:#333333;fill-opacity:1;stroke:none"
       d="m 181.11669,426.95264 c -10.30172,0 -18.60785,8.30613 -18.60785,18.60785 l 0,12.44437 -59.7271,0 c -30.027905,0 -54.209314,21.81334 -54.209314,48.89698 l 0,113.37876 c 0,27.08363 24.181409,48.86762 54.209314,48.86762 l 62.1338,0 0,11.91607 c 0,10.30173 8.49522,18.60786 19.0481,18.60786 l 178.94649,0 c 10.55289,0 19.04811,-8.30613 19.04811,-18.60786 l 0,-11.91607 62.83819,0 c 30.0279,0 54.20931,-21.78399 54.20931,-48.86762 l 0,-113.37876 c 0,-27.08364 -24.18141,-48.89698 -54.20931,-48.89698 l -70.41047,0 0,-12.44437 c 0,-10.30172 -8.30614,-18.60785 -18.60786,-18.60785 l -174.66141,0 z"
       id="rect3862-5-9-2" />
    <path
       style="fill:#4d4d4d;fill-opacity:1;stroke:none"
       d="m 181.11669,420.5799 c -10.30172,0 -18.60785,8.30613 -18.60785,18.60785 l 0,12.44437 -59.7271,0 c -30.027904,0 -54.209314,21.81334 -54.209314,48.89698 l 0,113.37876 c 0,27.08363 24.18141,48.86763 54.209314,48.86763 l 62.13379,0 0,11.91607 c 0,10.30172 8.49522,18.60785 19.0481,18.60785 l 178.9465,0 c 10.55288,0 19.0481,-8.30613 19.0481,-18.60785 l 0,-11.91607 62.83819,0 c 30.02791,0 54.20932,-21.784 54.20932,-48.86763 l 0,-113.37876 c 0,-27.08364 -24.18141,-48.89698 -54.20932,-48.89698 l -70.41047,0 0,-12.44437 c 0,-10.30172 -8.30613,-18.60785 -18.60785,-18.60785 l -174.66141,0 z"
       id="rect3862-5-9"
       inkscape:connector-curvature="0" />
    <path
       style="font-size:medium;font-style:normal;font-variant:normal;font-weight:normal;font-stretch:normal;text-indent:0;text-align:start;text-decoration:none;line-height:normal;letter-spacing:normal;word-spacing:normal;text-transform:none;direction:ltr;block-progression:tb;writing-mode:lr-tb;text-anchor:start;baseline-shift:baseline;color:#000000;fill:#808080;fill-opacity:1;stroke:none;stroke-width:17.35547447;marker:none;visibility:visible;display:inline;overflow:visible;enable-background:accumulate;font-family:Sans;-inkscape-font-specification:Sans"
       d="m 237.76836,441.63259 0,0.0293 -13.35422,40.59095 0,-11.68127 0,-28.90968 -14.41081,0 0,15.23261 -11.56387,0 0,-15.23261 -14.38147,0 0,31.05222 -76.12345,0 c -22.282705,0 -40.414853,18.13216 -40.414853,40.41485 l 0,92.54032 c 0,22.28268 18.132148,40.41484 40.414853,40.41484 l 77.3077,0 c -0.11349,0.28963 -0.22314,0.58294 -0.32285,0.8805 -0.10723,0.31793 -0.20205,0.61222 -0.2935,0.9392 -0.17605,0.62948 -0.32278,1.27416 -0.44025,1.93709 -0.11747,0.66294 -0.20536,1.32893 -0.26414,2.02515 -8.4e-4,0.01 8.2e-4,0.0195 0,0.0293 -0.0572,0.68715 -0.088,1.39383 -0.088,2.1132 0,0.01 -10e-6,0.0194 0,0.0293 0,1.1828 0.0795,2.30843 0.20545,3.40459 0.12617,1.09881 0.3039,2.15878 0.55765,3.16979 0.12598,0.50197 0.28261,0.98731 0.44025,1.4675 0.53051,1.61604 1.22085,3.12339 2.11319,4.49054 2.24468,3.40783 5.30935,5.94622 9.18653,7.66033 3.23659,1.41389 6.80166,2.22884 10.68337,2.46539 0.049,0.003 0.0976,-0.003 0.14675,0 0.72065,0.041 1.45954,0.088 2.20125,0.088 l 19.5764,0 0,-0.0293 0,-13.11941 0,-0.0293 -13.82382,0 c -2.81608,10e-6 -4.94052,-0.0919 -6.36893,-0.2348 -1.01094,-0.10108 -1.99289,-0.28605 -2.96434,-0.49895 l 0,0.0293 c -0.40121,-0.0879 -0.80971,-0.15679 -1.20335,-0.26415 -1.34683,-0.36729 -2.49528,-1.10825 -3.43394,-2.2306 -0.9387,-1.12232 -1.45353,-2.99383 -1.55555,-5.60583 0.14283,-2.69359 0.65767,-4.57405 1.55555,-5.63519 0.89785,-1.06109 1.91857,-1.80204 3.08174,-2.23059 1.16313,-0.4285 2.50192,-0.72616 3.99159,-0.90985 1.02009,-0.12574 2.56469,-0.21917 4.34379,-0.26415 0.8189,-0.0207 1.57576,-0.0293 2.55344,-0.0293 l 13.82382,0 0,-0.0293 0,-13.11941 0,-0.0293 -7.45488,0 -3.69809,0 0,0.0293 -8.42343,0 c -1.44881,2e-5 -2.87457,0.10754 -4.25574,0.26415 l -5.01884,0 0,-0.0293 -42.49869,0 0,0.0293 -49.66008,0 c -15.181361,0 -27.178029,-11.99667 -27.178029,-27.17803 l 0,-92.54032 c 0,-15.18136 11.996668,-27.17803 27.178029,-27.17803 l 78.266,0 0,-0.088 12.23892,0 0,-15.90766 11.56387,0 0,15.90766 14.41082,0 14.67496,0 0,-0.0293 2.78824,-7.92448 13.11942,0 2.78824,7.92448 0,0.0293 16.72946,0 -6.25153,-18.69591 -8.54083,-25.50508 0,-0.0293 -21.95375,0 z m 60.16734,0 c -0.67774,1e-5 -1.33244,0.0242 -1.99579,0.0587 l -0.0293,0.0293 c -2.72976,0.14235 -5.32968,0.56954 -7.80708,1.2914 -3.06093,0.8775 -5.79218,2.23418 -8.15928,4.05029 -2.36712,1.79577 -4.20034,4.04544 -5.54714,6.77983 -1.3264,2.71405 -1.99579,5.80556 -1.99579,9.27458 0,4.9383 1.12161,9.1246 3.34589,12.53241 1.54394,2.344 3.47321,4.24592 5.78193,5.78194 1.04784,0.69713 2.16489,1.3433 3.37524,1.8784 2.90786,1.27028 6.07865,2.05614 9.50938,2.37734 0.01,9.2e-4 0.0196,-9.1e-4 0.0293,0 0.56238,0.0522 1.12649,0.091 1.7023,0.1174 0.01,4.6e-4 0.0194,-4.5e-4 0.0293,0 0.57633,0.0259 1.17138,0.0587 1.761,0.0587 l 19.5764,0 0,-0.0293 0,-13.11942 0,-0.0293 -13.82382,0 c -2.81608,0 -4.94052,-0.0919 -6.36893,-0.2348 -1.42846,-0.14284 -2.82091,-0.39578 -4.16769,-0.7631 -0.67342,-0.18365 -1.27625,-0.45036 -1.84905,-0.8218 -0.007,-0.004 -0.023,0.004 -0.0293,0 -0.55986,-0.36581 -1.09493,-0.83166 -1.55555,-1.37945 -0.005,-0.006 0.005,-0.0237 0,-0.0293 -0.34729,-0.41523 -0.64868,-0.93567 -0.88049,-1.55554 -0.003,-0.008 0.003,-0.0211 0,-0.0293 -0.23069,-0.62384 -0.41239,-1.34352 -0.5283,-2.17189 -9.4e-4,-0.009 9.4e-4,-0.0204 0,-0.0293 -0.0773,-0.5603 -0.12125,-1.16669 -0.14675,-1.81969 0.0351,-0.66297 0.0957,-1.28469 0.1761,-1.84905 0.002,-0.01 -0.002,-0.0193 0,-0.0293 0.006,-0.0413 0.0232,-0.0766 0.0293,-0.1174 0.0795,-0.52349 0.17346,-1.00239 0.2935,-1.43815 0.0621,-0.22552 0.13243,-0.4437 0.20545,-0.64569 0.004,-0.009 -0.004,-0.0204 0,-0.0293 0.0312,-0.0853 0.0842,-0.15373 0.1174,-0.2348 0.0502,-0.12108 0.0921,-0.2407 0.14675,-0.35219 0.0843,-0.17536 0.16899,-0.31752 0.26415,-0.4696 0.005,-0.007 -0.005,-0.0225 0,-0.0293 0.0959,-0.15137 0.21598,-0.28294 0.32285,-0.4109 0.005,-0.006 -0.005,-0.0236 0,-0.0293 0.20614,-0.24363 0.42636,-0.46508 0.6457,-0.67505 0.01,-0.009 0.0193,-0.02 0.0293,-0.0293 0.01,-0.009 0.0195,-0.0202 0.0293,-0.0293 0.71227,-0.6617 1.51721,-1.15059 2.37735,-1.4675 1.16313,-0.4285 2.50191,-0.72616 3.99159,-0.90985 1.48962,-0.18362 3.79546,-0.26415 6.89723,-0.26415 l 13.82381,0 0,-0.0293 0,-13.14877 0,-0.0293 -7.45488,0 -12.12152,0 z m 21.42545,0 0,0.0293 0,44.17164 0,0.0293 14.38146,0 0,-13.14876 11.12362,13.11941 0,0.0293 6.69179,0 0,0.0587 0,0.0293 87.29693,0 c 15.18136,0 27.17803,11.99667 27.17803,27.17803 l 0,92.54031 c 0,15.18136 -11.99667,27.17804 -27.17803,27.17804 l -89.13572,0 c -1.25146,-0.1584 -2.58542,-0.25177 -4.05029,-0.26415 l -25.09419,0 0,-0.0293 -5.07754,0 0,0.0293 0,12.79656 0,31.40442 27.88243,0 c 3.99958,0.0409 7.41809,-0.21213 10.21378,-0.76309 2.816,-0.55096 5.0925,-1.72625 6.86788,-3.52199 1.79569,-1.79574 2.70014,-4.43503 2.70019,-7.92448 -5e-5,-1.10192 -0.25299,-2.23249 -0.7631,-3.37525 -0.5102,-1.14273 -1.23326,-2.1545 -2.17189,-3.05239 -0.91832,-0.91825 -2.06677,-1.69498 -3.43394,-2.34799 -1.36726,-0.67338 -2.84914,-1.11666 -4.46119,-1.32075 l 0,-0.1174 c 3.28535,-1.0815 5.64486,-2.46501 7.07333,-4.13834 0.94138,-1.10277 1.51978,-2.48602 1.761,-4.13834 l 77.68925,0 c 22.28269,0 40.41485,-18.13216 40.41485,-40.41485 l 0,-92.54031 c 0,-22.28269 -18.13216,-40.41485 -40.41485,-40.41485 l -55.06046,0 0,-0.0293 -21.46505,0 -10.77142,0 -2.4654,0 -3.46329,-4.19704 -3.87419,-4.72534 12.20957,-16.40661 4.25574,-5.69388 0,-0.0293 -1.99579,0 0,0.0293 -12.38567,0 -10.09638,14.38146 0,-2.49474 0,-11.88672 0,-0.0293 -14.38146,0 z m -70.55722,9.83222 5.84063,17.46321 -12.18022,0 z m -32.16752,38.7419 0,0.0293 -27.77615,0 -5.6028,16.31856 254.45284,0 c 4.16693,0 7.27878,3.0825 7.27878,7.24943 l 0,91.36632 c 0,4.16691 -3.11185,7.24943 -7.27878,7.24943 l -109.15237,0 0,-0.0293 -42.52804,0 0,0.0293 -17.78606,0 0,-0.0293 -42.49869,0 0,0.0293 -17.58061,0 0,-0.0293 -42.49869,0 0,0.0293 -57.203,0 c -4.16693,0 -7.24944,-3.08252 -7.24944,-7.24943 l 0,-91.36632 c 0,-4.16693 3.08251,-7.24943 7.24944,-7.24943 l 1.05659,0 0,-16.31856 -1.05659,0 c -12.915309,0 -23.567997,10.6527 -23.567997,23.56799 l 0,91.36632 c 0,12.91529 10.652688,23.56799 23.567997,23.56799 l 329.24746,0 c 12.91529,0 23.56799,-10.6527 23.56799,-23.56799 l 0,-91.36632 c 0,-12.91529 -10.6527,-23.56799 -23.56799,-23.56799 l -60.84239,0 0,-0.0293 -39.86746,0 0,0.0293 -17.7567,0 0,-0.0293 -42.49869,0 0,0.0293 -17.60996,0 0,-0.0293 z m 14.15692,142.34714 0,0.0293 0,44.17164 0,0.0293 38.30165,0 0,-0.0293 0,-13.11942 0,-0.0293 -3.31654,0 0,0.0293 -17.78606,0 0,-0.0293 -2.81759,0 0,-31.02288 0,-0.0293 -14.38146,0 z m 47.25338,0 0,0.0293 -8.62888,0 0,21.77764 0,4.13834 0,0.0293 c 3.7e-4,0.45369 0.0125,0.88785 0.0293,1.32075 3.7e-4,0.01 -3.7e-4,0.0197 0,0.0293 0.0341,0.87465 0.1035,1.70544 0.20545,2.49475 9.4e-4,0.009 -9.4e-4,0.02 0,0.0293 0.0512,0.38856 0.10831,0.777 0.1761,1.14465 0.002,0.009 -0.002,0.0201 0,0.0293 0.0681,0.36658 0.14998,0.71094 0.2348,1.0566 0.0888,0.36458 0.18607,0.7153 0.2935,1.0566 0.20664,0.6565 0.45787,1.27912 0.73375,1.84904 0.004,0.008 -0.004,0.0216 0,0.0293 0.2819,0.56884 0.59958,1.09617 0.9392,1.61425 0.005,0.007 -0.005,0.0225 0,0.0293 0.51744,0.78653 1.11132,1.50295 1.76099,2.1719 0.43311,0.44596 0.88807,0.86849 1.37945,1.26204 0.24568,0.19679 0.50292,0.40335 0.7631,0.587 2.10182,1.46925 4.54182,2.56404 7.33748,3.25784 2.11203,0.50506 4.19381,0.81235 6.25153,0.96855 0.68591,0.052 1.37598,0.10209 2.0545,0.1174 0.77608,-0.0194 1.51956,-0.0856 2.25994,-0.14675 0.13924,-0.0115 0.27291,-0.0163 0.4109,-0.0293 1.30869,-0.12313 2.55818,-0.33182 3.75679,-0.587 0.27517,-0.0586 0.5523,-0.11059 0.8218,-0.1761 0.54355,-0.13213 1.09348,-0.25066 1.61424,-0.4109 0.62851,-0.19191 1.21088,-0.4172 1.79035,-0.6457 1.8851,-0.74333 3.52975,-1.66444 4.87209,-2.78824 1.77529,-1.46923 3.23035,-3.27562 4.37314,-5.45909 1.1631,-2.20385 1.75843,-5.16121 1.81969,-8.83432 l 0,-7.54293 0,-18.37306 0,-0.0293 -14.38146,0 0,0.0293 0,26.12144 c 2.8e-4,0.0101 -2.7e-4,0.0193 0,0.0293 0.0204,0.72442 -0.0125,1.37779 -0.088,1.99579 -0.0378,0.30901 -0.085,0.59788 -0.14674,0.8805 -0.002,0.008 0.002,0.0205 0,0.0293 -0.0163,0.0735 -0.0408,0.13373 -0.0587,0.20544 -0.0504,0.20453 -0.11258,0.39688 -0.1761,0.587 -0.0827,0.24282 -0.15987,0.48518 -0.26415,0.7044 -0.11367,0.24277 -0.24166,0.46076 -0.38155,0.67505 -0.13345,0.20442 -0.25361,0.37899 -0.4109,0.55765 -0.008,0.0101 -0.0206,0.0194 -0.0293,0.0293 -0.1496,0.16708 -0.32819,0.32529 -0.49895,0.4696 -0.29697,0.25095 -0.6134,0.47315 -0.9392,0.67505 -0.47407,0.29554 -0.95998,0.54329 -1.49685,0.73375 -0.22465,0.0797 -0.43917,0.14429 -0.67505,0.20545 -0.47175,0.12233 -0.97935,0.21642 -1.49684,0.26415 -0.25874,0.0239 -0.52207,0.0242 -0.79245,0.0293 -2.69363,-0.0816 -4.69287,-0.71524 -5.95803,-1.8784 -0.1529,-0.14056 -0.30793,-0.27371 -0.44025,-0.44025 -0.005,-0.006 0.005,-0.0232 0,-0.0293 -0.13615,-0.1732 -0.26732,-0.35648 -0.38155,-0.55765 -0.22442,-0.39521 -0.41728,-0.84599 -0.55765,-1.35009 -0.003,-0.008 0.003,-0.0205 0,-0.0293 -0.0683,-0.2488 -0.12801,-0.51709 -0.1761,-0.79244 -0.002,-0.009 0.002,-0.0203 0,-0.0293 -0.0475,-0.27698 -0.0901,-0.57668 -0.1174,-0.8805 -8.1e-4,-0.009 7.9e-4,-0.0201 0,-0.0293 -0.0543,-0.62086 -0.0584,-1.29193 -0.0293,-2.02514 l 0,-0.0293 0,-26.12143 0,-0.0293 -5.75259,0 z m 52.71246,10.74208 10.68338,0 c 0.46931,3e-5 1.0378,0.24403 1.73164,0.73375 0.71419,0.48978 1.1217,1.34951 1.20335,2.55344 -0.0409,1.04074 -0.40363,1.86218 -1.0566,2.49474 -0.65302,0.61222 -1.25729,0.90988 -1.84904,0.90985 l -10.71273,0 z m 0,16.37726 9.80288,0 c 2.04058,10e-6 3.64126,0.38069 4.78404,1.11529 1.16312,0.73464 1.67795,1.73747 1.55554,3.02305 -3e-5,1.16315 -0.61325,2.13916 -1.87839,2.93499 -1.26521,0.79585 -2.76751,1.14717 -4.46119,1.08595 l -9.80288,0 z"
       id="rect3812-3-3"
       inkscape:connector-curvature="0"
       sodipodi:nodetypes="cccccccccccssssccssccscccsccccsccccsccccccsccsscccccccccccccsssscccccccccccccccccccccccccscscccccsccccsccccccccccccccccccccccccccccsccccccccccccccccccsssscccccccccccccccccscsssscccccccccccccccccccccccccccssssccccccccccccssssccsssssssscccccccccccccccccccccccccccccccccccccccccsccccscccccsccscsccccccccccccccccscccccccccccccccccccccccccccccccccscccccc" />
    <path
       style="font-size:medium;font-style:normal;font-variant:normal;font-weight:normal;font-stretch:normal;text-indent:0;text-align:start;text-decoration:none;line-height:normal;letter-spacing:normal;word-spacing:normal;text-transform:none;direction:ltr;block-progression:tb;writing-mode:lr-tb;text-anchor:start;baseline-shift:baseline;color:#000000;fill:#b3b3b3;fill-opacity:1;stroke:none;stroke-width:17.35547447;marker:none;visibility:visible;display:inline;overflow:visible;enable-background:accumulate;font-family:Sans;-inkscape-font-specification:Sans"
       d="m 184.05333,439.53673 0,31.05222 -76.12344,0 c -22.282702,0 -40.414857,18.13216 -40.414857,40.41485 l 0,92.54032 c 0,22.28268 18.132155,40.41484 40.414857,40.41484 l 77.30769,0 c -0.93808,2.38341 -1.40879,5.03648 -1.40879,7.95383 0,4.9383 1.09227,9.12461 3.31654,12.53242 2.24467,3.40783 5.30935,5.94622 9.18653,7.66033 3.87714,1.69371 8.23589,2.55345 13.03136,2.55345 l 19.5764,0 0,-13.14877 -13.82381,0 c -2.81608,10e-6 -4.94053,-0.0919 -6.36894,-0.2348 -1.42845,-0.14283 -2.8209,-0.39578 -4.16769,-0.7631 -1.34682,-0.36729 -2.49527,-1.10824 -3.43394,-2.23059 -0.9387,-1.12233 -1.45353,-2.99384 -1.55554,-5.60584 0.14282,-2.69359 0.65766,-4.57404 1.55554,-5.63518 0.89786,-1.06109 1.91858,-1.80204 3.08175,-2.2306 1.16313,-0.4285 2.50191,-0.72616 3.99159,-0.90985 1.48962,-0.18362 3.79546,-0.29347 6.89723,-0.2935 l 13.82381,0 0,-13.14876 -7.45488,0 -12.12152,0 c -1.4488,2e-5 -2.87456,0.10754 -4.25574,0.26415 l -97.17759,0 c -15.181365,0 -27.17804,-11.99667 -27.17804,-27.17803 l 0,-92.54032 c 0,-15.18136 11.996675,-27.17803 27.17804,-27.17803 l 78.26599,0 0,-0.088 12.23892,0 0,-15.90766 11.56387,0 0,15.90766 14.41081,0 14.67496,0 2.78825,-7.95383 13.11941,0 2.78825,7.95383 16.72945,0 -14.79236,-44.20099 -21.95374,0 -13.35422,40.62029 0,-40.62029 -14.41081,0 0,15.23261 -11.56387,0 0,-15.23261 z m 113.87772,0 c -3.46907,5e-5 -6.75092,0.45227 -9.83223,1.3501 -3.06093,0.8775 -5.79217,2.23418 -8.15928,4.05029 -2.36712,1.79577 -4.20034,4.04544 -5.54714,6.77983 -1.3264,2.71405 -1.99579,5.80556 -1.99579,9.27458 0,4.9383 1.12162,9.1246 3.34589,12.53241 2.24467,3.40784 5.28,5.94622 9.15718,7.66034 3.87715,1.69371 8.2359,2.55344 13.03137,2.55344 l 19.5764,0 0,-13.14877 -13.82382,0 c -2.81608,0 -4.94053,-0.0919 -6.36893,-0.2348 -1.42846,-0.14283 -2.82091,-0.39578 -4.16769,-0.7631 -1.34683,-0.36729 -2.49528,-1.10824 -3.43394,-2.23059 -0.9387,-1.12232 -1.45353,-2.99383 -1.55555,-5.60584 0.14282,-2.69359 0.65766,-4.57404 1.55555,-5.63518 0.89785,-1.06109 1.91857,-1.80204 3.08174,-2.2306 1.16313,-0.4285 2.50192,-0.72616 3.99159,-0.90984 1.48962,-0.18363 3.79546,-0.26415 6.89723,-0.26415 l 13.82382,0 0,-13.17812 -7.45489,0 z m 21.42544,0 0,44.20099 14.38146,0 0,-13.14877 11.12363,13.14877 6.69178,0 0,0.088 87.29693,0 c 15.18136,0 27.17803,11.99667 27.17803,27.17803 l 0,92.54032 c 0,15.18136 -11.99667,27.17803 -27.17803,27.17803 l -89.13572,0 c -1.25146,-0.1584 -2.58542,-0.25177 -4.05029,-0.26415 l -30.17173,0 0,44.20099 27.88243,0 c 3.99958,0.0408 7.4181,-0.21214 10.21378,-0.7631 2.816,-0.55096 5.09251,-1.72624 6.86788,-3.52199 1.79569,-1.79574 2.70015,-4.43502 2.70019,-7.92448 -4e-5,-1.10191 -0.25299,-2.23248 -0.76309,-3.37524 -0.5102,-1.14273 -1.23326,-2.1545 -2.1719,-3.05239 -0.91832,-0.91826 -2.06677,-1.69498 -3.43394,-2.348 -1.36726,-0.67337 -2.84914,-1.11666 -4.46119,-1.32074 l 0,-0.1174 c 3.28535,-1.08151 5.64486,-2.46501 7.07333,-4.13834 0.94138,-1.10277 1.51978,-2.48602 1.761,-4.13834 l 77.68925,0 c 22.28269,0 40.41485,-18.13216 40.41485,-40.41485 l 0,-92.54032 c 0,-22.28269 -18.13216,-40.41484 -40.41485,-40.41484 l -76.52551,0 -10.77142,0 -2.46539,0 -7.33749,-8.95173 16.46531,-22.1005 -14.38146,0 -10.09638,14.38147 0,-14.38147 z m -70.55722,9.80288 5.84063,17.49255 -12.18021,0 z m -140.34108,38.77125 c -12.915306,0 -23.568001,10.6527 -23.568001,23.56799 l 0,91.36632 c 0,12.91529 10.652695,23.56799 23.568001,23.56799 l 329.24745,0 c 12.9153,0 23.568,-10.6527 23.568,-23.56799 l 0,-91.36632 c 0,-12.91529 -10.6527,-23.56799 -23.568,-23.56799 l -248.83823,0 -5.6028,16.31856 254.44103,0 c 4.16693,0 7.27879,3.0825 7.27879,7.24943 l 0,91.36632 c 0,4.16691 -3.11186,7.24943 -7.27879,7.24943 l -329.24745,0 c -4.16693,0 -7.24944,-3.08252 -7.24944,-7.24943 l 0,-91.36632 c 0,-4.16693 3.08251,-7.24943 7.24944,-7.24943 l 1.05659,0 0,-16.31856 z m 122.33048,142.34714 0,44.20099 38.30165,0 0,-13.14877 -23.92019,0 0,-31.05222 z m 38.6245,0 0,25.94533 c 0,3.71394 0.55061,6.7339 1.67295,9.03978 1.14274,2.3059 2.7613,4.1953 4.84273,5.66453 2.10183,1.46925 4.54183,2.56404 7.33749,3.25785 2.81603,0.6734 5.59199,1.02473 8.30602,1.08594 3.26497,-0.0816 6.21085,-0.53385 8.86368,-1.35009 2.67317,-0.81625 4.90747,-1.9647 6.66244,-3.43394 1.77529,-1.46924 3.23035,-3.27562 4.37313,-5.45909 1.16311,-2.20386 1.75844,-5.16121 1.8197,-8.83433 l 0,-25.91598 -14.38146,0 0,26.15078 c 0.0816,2.89769 -0.60569,4.93913 -2.0545,6.16349 -1.44886,1.22437 -3.23736,1.86694 -5.40039,1.90774 -2.69362,-0.0816 -4.69287,-0.71524 -5.95803,-1.87839 -1.26519,-1.16314 -1.82475,-3.21353 -1.7023,-6.19284 l 0,-26.15078 z m 61.34135,10.71272 10.68337,0 c 0.46932,4e-5 1.0378,0.24403 1.73164,0.73375 0.71419,0.48978 1.1217,1.34951 1.20335,2.55344 -0.0409,1.04075 -0.40363,1.86219 -1.0566,2.49475 -0.65302,0.61221 -1.25729,0.90987 -1.84904,0.90984 l -10.71272,0 z m 0,16.37726 9.80287,0 c 2.04059,2e-5 3.64126,0.38069 4.78404,1.1153 1.16312,0.73464 1.67795,1.73746 1.55554,3.02304 -3e-5,1.16316 -0.61324,2.13916 -1.87839,2.93499 -1.26521,0.79585 -2.76751,1.14717 -4.46119,1.08595 l -9.80287,0 z"
       id="rect3812-3"
       inkscape:connector-curvature="0"
       sodipodi:nodetypes="ccsssscsccsccsccccsccscccccsssscccccccccccccccccccccccccsccsccsccccsccscccccccccccsssscccccccccccccscsssscccccccccccccssssssssccssssssssccsccccccccscccccccccccsccccccccccccccscccccc" />
    <flowRoot
       id="flowRoot3761"
       xml:space="preserve"
       style="font-size:40px;font-style:normal;font-weight:normal;line-height:125%;letter-spacing:0px;word-spacing:0px;fill:#000000;fill-opacity:1;stroke:none;font-family:Sans"><flowRegion
         id="flowRegion3763"><rect
           width="141.67389"
           height="46.467018"
           x="333.35034"
           y="229.84547"
           id="rect3765" /></flowRegion><flowPara
         id="flowPara3767" /></flowRoot>    <path
       d="m 112.83078,489.80124 -0.009,16.30463 14.41797,-0.0618 -0.39671,56.43975 16.61553,0.008 0.3967,-56.43978 36.16776,0.009 5.46543,-16.03362 z m 261.39465,22.88971 c -14.66995,-0.007 -21.82289,10.84163 -21.92861,25.88086 -0.10929,15.54784 6.3753,24.41165 21.11692,24.4179 5.8249,0.003 10.43794,-1.19828 13.39498,-2.43214 l -2.53886,-8.14767 c -2.66839,1.08866 -6.0114,2.06496 -9.39123,2.06352 -7.62252,-0.003 -9.84807,-6.81765 -9.7786,-16.6985 0.0725,-10.31678 2.88121,-16.56972 9.06557,-16.56709 2.51687,9.3e-4 4.90787,0.86767 7.54559,4.13819 l 6.52177,-6.63176 c -2.71065,-3.12527 -6.31299,-6.02006 -14.00749,-6.02332 z m -219.85298,0.52408 -0.34596,49.21893 11.9117,0.005 0.14813,-21.07619 16.79877,0.008 -0.14814,21.0762 11.82007,0.005 0.34597,-49.21891 -11.82008,-0.005 -0.13578,19.31727 -16.79877,-0.008 0.13578,-19.31729 z m 49.44916,0.0209 -0.34596,49.21894 32.00907,0.0135 0.0618,-8.7946 -20.09729,-0.008 0.0874,-12.43588 14.50805,0.007 1.4657,-8.63971 -15.91286,-0.007 0.0742,-10.55353 19.08949,0.008 0.0618,-8.79461 z m 56.07698,0.0238 -0.34594,49.21893 11.85059,0.005 0.14815,-21.07617 16.85983,0.008 -0.14813,21.0762 11.78952,0.005 0.34597,-49.21892 -11.78954,-0.005 -0.13578,19.31727 -16.85984,-0.008 0.1358,-19.31725 z m 63.37677,0.0269 -18.85503,49.21109 11.82008,0.005 3.84028,-11.87885 15.72963,0.007 3.52058,11.88196 12.0033,0.005 -17.52169,-49.22649 z m 70.34056,0.0298 -0.34595,49.21891 11.85061,0.005 0.34596,-49.21892 z m 26.17538,0.0111 c -2.3747,10.46113 -5.19701,17.27224 -13.71163,21.40991 l -0.006,0.83316 16.39531,26.97715 13.19458,0.006 -16.61669,-25.89719 c 5.20622,-4.0664 9.70476,-9.59325 12.53392,-23.32359 z m -91.62399,12.2737 c 1.05369,3.56049 3.1767,10.53499 5.07845,16.20278 l -10.41525,-0.005 c 1.98095,-5.59352 4.23202,-12.49351 5.33673,-16.19838 z m -202.5045,43.97999 c -6.20419,-0.003 -11.6952,3.94098 -11.73923,10.20915 -0.04,5.68876 3.42134,8.58211 9.45133,11.113 3.06711,1.26549 4.9317,2.31849 4.91392,4.84685 -0.0177,2.52838 -1.38397,3.91842 -4.30358,3.91718 -2.76314,-9.4e-4 -7.44903,-2.95967 -8.43481,-3.64485 l -2.85377,6.23217 c 2.49178,1.52861 6.95188,3.76767 12.37399,3.76996 7.61171,0.003 12.46748,-5.18026 12.51299,-11.65916 0.0378,-5.37272 -2.67383,-7.87577 -8.23567,-10.24845 -4.41822,-1.89814 -6.0213,-3.20854 -6.16141,-5.52626 0.0107,-1.52754 1.22448,-2.6533 3.62275,-2.65228 2.65887,9.4e-4 5.88348,1.97686 7.49341,2.873 l 3.09485,-5.76921 c -2.33463,-1.63387 -6.72973,-3.45898 -11.73477,-3.4611 z m 160.809,0.0681 c -6.20419,-0.003 -11.72572,3.94095 -11.76978,10.20914 -0.04,5.68877 3.45192,8.58212 9.48189,11.11302 3.06712,1.26547 4.93171,2.31849 4.91391,4.84685 -0.0177,2.52835 -1.38397,3.91842 -4.30357,3.91718 -2.76313,-9.4e-4 -7.47957,-2.95969 -8.46537,-3.64487 l -2.85376,6.23218 c 2.49177,1.52862 6.98242,3.76768 12.40454,3.76997 7.61171,0.003 12.43692,-5.18029 12.48246,-11.65918 0.0378,-5.37271 -2.67384,-7.87576 -8.23569,-10.24844 -4.4182,-1.89814 -5.99075,-3.20853 -6.13087,-5.52625 0.0107,-1.52754 1.19395,-2.65331 3.59222,-2.65229 2.65886,9.4e-4 5.91402,1.97686 7.52392,2.87302 l 3.06432,-5.76923 c -2.33462,-1.63389 -6.69921,-3.45896 -11.70421,-3.46114 z m 107.02276,0.0454 c -10.63573,-0.005 -15.78512,7.88257 -15.86176,18.78602 -0.0792,11.27218 4.64288,17.65295 15.33068,17.65746 4.22302,0.002 7.5199,-0.82943 9.66376,-1.72397 l -1.82167,-5.89471 c -1.93458,0.78928 -4.34054,1.47937 -6.79094,1.47831 -5.52627,-0.002 -7.17306,-4.99755 -7.1227,-12.16121 0.0526,-7.47965 2.07559,-11.97215 6.55928,-11.97025 1.82474,7.7e-4 3.56411,0.6553 5.47649,3.02643 l 4.73767,-4.84275 c -1.96524,-2.26582 -4.59227,-4.35297 -10.17078,-4.35533 z m -213.77343,0.31065 c -2.29396,-9.4e-4 -9.64428,0.0885 -10.84341,0.0879 l -0.25052,35.6413 8.58263,0.004 0.10606,-15.08969 0.91627,3.9e-4 c 3.59748,0.002 4.67295,5.24169 9.08739,15.09358 l 9.22397,0.004 c -3.58878,-8.64005 -5.49416,-14.20294 -9.59621,-16.57498 3.66096,-1.63135 6.0484,-4.46908 6.07988,-8.94636 0.047,-6.68958 -4.44301,-10.216 -13.30608,-10.21976 z m 147.64495,0.0625 c -2.18969,-9.4e-4 -9.59214,0.0885 -10.84341,0.0879 l -0.25052,35.6413 c 1.51197,6.4e-4 8.28085,0.0652 10.26202,0.066 9.95779,0.004 14.99007,-3.40752 15.03636,-9.99175 0.0285,-4.05588 -2.43306,-7.14469 -7.63589,-8.67442 4.38975,-1.47301 6.71926,-4.31507 6.74444,-7.89687 0.04,-5.68879 -4.5542,-9.22859 -13.31301,-9.2323 z m -188.1151,0.0129 -0.0447,6.3568 8.39938,0.004 -0.20583,29.28448 8.64369,0.004 0.20584,-29.2845 8.09398,0.004 1.14422,-6.35632 z m 60.87225,0.0257 -0.25052,35.64129 8.64369,0.004 0.25051,-35.6413 z m 15.08829,0.007 -0.25051,35.6413 8.61315,0.004 0.25052,-35.64131 z m 18.93677,0.008 c -1.72166,7.5843 -3.70953,12.48688 -9.88264,15.4867 l -0.005,0.64802 11.83577,19.50749 9.59044,0.004 -12.055,-18.73611 c 3.7745,-2.94816 7.07793,-6.95203 9.12904,-16.90652 z m 14.32458,0.006 -0.25052,35.6413 23.2127,0.01 0.0447,-6.35681 -14.59967,-0.007 0.0634,-9.01062 10.53739,0.005 1.08227,-6.23293 -11.57573,-0.005 0.054,-7.6837 13.86646,0.006 0.0447,-6.35681 z m 108.09173,0.0457 -13.62835,35.63562 8.55208,0.004 2.74786,-8.54659 11.42306,0.005 2.56661,8.54884 8.70478,0.004 -12.73026,-35.64678 z m 50.9763,0.0216 -0.2505,35.64129 8.64369,0.004 0.25051,-35.64129 z m 18.96732,0.008 c -1.72166,7.58432 -3.70954,12.4869 -9.88265,15.48671 l -0.005,0.64802 11.83578,19.50749 9.62099,0.004 -12.08557,-18.73615 c 3.7745,-2.94814 7.01686,-6.95203 9.06797,-16.90653 z m -249.08679,5.44905 1.92419,8.1e-4 c 3.54532,0.002 4.627,2.21302 4.60848,4.84672 -0.0224,3.21311 -1.95046,4.7205 -4.40083,4.71947 l -2.1991,-9.4e-4 z m 148.56079,0.12461 c 0.38697,-0.008 0.83965,3.6e-4 1.28281,5.4e-4 3.07592,9.4e-4 4.35483,1.8261 4.33446,4.72318 -0.0247,3.52915 -2.0486,4.597 -4.18616,4.59611 l -2.41288,-9.4e-4 0.0651,-9.25747 c 0.20873,-0.0263 0.5298,-0.0526 0.91672,-0.0613 z m 34.12388,3.31628 c 0.76391,2.58137 2.29586,7.58773 3.67452,11.69688 l -7.51351,-0.003 c 1.43616,-4.05527 3.03808,-9.00766 3.839,-11.69369 z m -32.82281,11.46542 c 3.96235,0.002 5.23611,2.46016 5.21763,5.09384 -0.0243,3.47651 -2.19465,4.47354 -5.00997,4.47233 l -2.59615,-9.3e-4 0.0666,-9.47349 c 0.46958,-0.0524 1.38347,-0.0919 2.32191,-0.0916 z"
       id="text3769-4-2-0"
       style="font-size:40px;font-style:normal;font-weight:normal;line-height:125%;letter-spacing:0px;word-spacing:0px;fill:#944b4f;fill-opacity:1;stroke:none;font-family:Sans"
       inkscape:connector-curvature="0"
       sodipodi:nodetypes="ccccccccccsccccsccccccccccccccccccccccccccccccccccccccccccccccccccccccccccccccccccccccccsccccccscccccccsccccccsccccccccsccccsscccccccccccccsccccccscscccccccccccccccccccccccccccccccccccccccccccccccccccccccccccccccccccscccccccccccccccccccccc" />
    <path
       d="m 112.83877,489.23213 -0.009,16.30463 14.41797,-0.0618 -0.39671,56.43976 16.61553,0.008 0.39671,-56.43978 36.16777,0.009 5.46542,-16.03363 z m 261.39466,22.8897 c -14.66995,-0.007 -21.82289,10.84164 -21.92861,25.88087 -0.10929,15.54783 6.3753,24.41164 21.11692,24.4179 5.8249,0.003 10.43794,-1.19829 13.39498,-2.43215 l -2.53885,-8.14767 c -2.6684,1.08866 -6.01141,2.06497 -9.39124,2.06352 -7.62252,-0.003 -9.84807,-6.81765 -9.77859,-16.69849 0.0725,-10.31679 2.8812,-16.56973 9.06556,-16.5671 2.51687,9.4e-4 4.90787,0.86768 7.54559,4.1382 l 6.52177,-6.63177 c -2.71065,-3.12527 -6.31298,-6.02006 -14.00748,-6.02332 z m -219.85299,0.52408 -0.34596,49.21893 11.91171,0.005 0.14813,-21.07619 16.79877,0.008 -0.14814,21.07619 11.82007,0.005 0.34597,-49.21891 -11.82007,-0.005 -0.13578,19.31727 -16.79877,-0.008 0.13578,-19.31728 z m 49.44917,0.021 -0.34596,49.21893 32.00907,0.0135 0.0618,-8.7946 -20.09729,-0.008 0.0874,-12.43588 14.50805,0.007 1.4657,-8.63972 -15.91286,-0.007 0.0742,-10.55353 19.08949,0.008 0.0618,-8.79461 z m 56.07698,0.0238 -0.34594,49.21892 11.85059,0.005 0.14816,-21.07618 16.85982,0.008 -0.14813,21.0762 11.78953,0.005 0.34596,-49.21893 -11.78954,-0.005 -0.13578,19.31726 -16.85984,-0.008 0.1358,-19.31726 z m 63.37677,0.0269 -18.85503,49.21108 11.82008,0.005 3.84029,-11.87885 15.72962,0.007 3.52058,11.88196 12.00331,0.005 -17.5217,-49.2265 z m 70.34057,0.0298 -0.34596,49.21892 11.85061,0.005 0.34596,-49.21891 z m 26.17537,0.0111 c -2.3747,10.46113 -5.19701,17.27224 -13.71163,21.40992 l -0.006,0.83316 16.39531,26.97714 13.19459,0.006 -16.61669,-25.89719 c 5.20621,-4.06641 9.70475,-9.59326 12.53391,-23.32359 z m -91.62399,12.2737 c 1.05369,3.56049 3.1767,10.53499 5.07845,16.20278 l -10.41524,-0.005 c 1.98094,-5.59351 4.23201,-12.49351 5.33672,-16.19838 z m -202.5045,43.98 c -6.20419,-0.003 -11.6952,3.94097 -11.73924,10.20914 -0.04,5.68877 3.42134,8.58212 9.45133,11.113 3.06711,1.26549 4.9317,2.31849 4.91392,4.84685 -0.0177,2.52839 -1.38396,3.91843 -4.30358,3.91719 -2.76314,-9.4e-4 -7.44903,-2.95968 -8.4348,-3.64486 l -2.85377,6.23218 c 2.49177,1.52861 6.95187,3.76766 12.37398,3.76996 7.61171,0.003 12.46748,-5.18027 12.513,-11.65917 0.0378,-5.37271 -2.67383,-7.87577 -8.23568,-10.24844 -4.41822,-1.89814 -6.0213,-3.20855 -6.16141,-5.52626 0.0107,-1.52754 1.22448,-2.6533 3.62275,-2.65229 2.65887,9.4e-4 5.88348,1.97686 7.49341,2.87301 l 3.09485,-5.76922 c -2.33463,-1.63387 -6.72972,-3.45897 -11.73476,-3.46109 z m 160.809,0.0681 c -6.20419,-0.003 -11.72572,3.94095 -11.76978,10.20913 -0.04,5.68877 3.45193,8.58213 9.48189,11.11302 3.06712,1.26548 4.93171,2.31849 4.91391,4.84685 -0.0178,2.52835 -1.38397,3.91842 -4.30357,3.91718 -2.76313,-9.4e-4 -7.47957,-2.95968 -8.46537,-3.64487 l -2.85375,6.23218 c 2.49176,1.52862 6.98241,3.76769 12.40453,3.76998 7.61171,0.003 12.43692,-5.1803 12.48247,-11.65918 0.0378,-5.37272 -2.67384,-7.87577 -8.2357,-10.24844 -4.4182,-1.89815 -5.99074,-3.20854 -6.13087,-5.52626 0.0107,-1.52754 1.19395,-2.65331 3.59222,-2.65229 2.65886,9.4e-4 5.91402,1.97687 7.52392,2.87302 l 3.06432,-5.76923 c -2.33462,-1.63388 -6.69921,-3.45896 -11.70421,-3.46114 z m 107.02276,0.0454 c -10.63573,-0.005 -15.78512,7.88257 -15.86176,18.78602 -0.0792,11.27218 4.64289,17.65295 15.33068,17.65746 4.22302,0.002 7.5199,-0.82942 9.66376,-1.72396 l -1.82167,-5.89472 c -1.93458,0.78929 -4.34054,1.47937 -6.79094,1.47832 -5.52626,-0.002 -7.17306,-4.99756 -7.1227,-12.16121 0.0526,-7.47966 2.0756,-11.97216 6.55928,-11.97025 1.82474,7.7e-4 3.56411,0.65529 5.47649,3.02642 l 4.73767,-4.84275 c -1.96524,-2.26581 -4.59227,-4.35296 -10.17078,-4.35533 z m -213.77343,0.31065 c -2.29396,-9.4e-4 -9.64428,0.0885 -10.84341,0.0879 l -0.25052,35.6413 8.58263,0.004 0.10606,-15.0897 0.91628,4e-4 c 3.59747,0.002 4.67295,5.24169 9.08738,15.09357 l 9.22397,0.004 c -3.58878,-8.64006 -5.49416,-14.20294 -9.59621,-16.57499 3.66096,-1.63135 6.0484,-4.46908 6.07989,-8.94636 0.047,-6.68957 -4.44302,-10.216 -13.30609,-10.21975 z m 147.64495,0.0625 c -2.18969,-9.4e-4 -9.59214,0.0885 -10.84341,0.0879 l -0.25051,35.6413 c 1.51196,6.4e-4 8.28084,0.0652 10.26202,0.066 9.95778,0.004 14.99006,-3.40753 15.03635,-9.99175 0.0285,-4.05589 -2.43305,-7.14469 -7.63589,-8.67442 4.38975,-1.47302 6.71926,-4.31508 6.74444,-7.89688 0.04,-5.68878 -4.5542,-9.22858 -13.31301,-9.23229 z m -188.1151,0.0129 -0.0447,6.3568 8.39938,0.004 -0.20583,29.28449 8.64369,0.004 0.20584,-29.2845 8.09399,0.004 1.14422,-6.35632 z m 60.87225,0.0257 -0.25051,35.64129 8.64369,0.004 0.2505,-35.6413 z m 15.08829,0.007 -0.25051,35.6413 8.61315,0.004 0.25052,-35.64131 z m 18.93677,0.008 c -1.72166,7.5843 -3.70953,12.48688 -9.88264,15.4867 l -0.005,0.64803 11.83576,19.50748 9.59044,0.004 -12.05499,-18.73611 c 3.77449,-2.94816 7.07792,-6.95204 9.12903,-16.90653 z m 14.32458,0.006 -0.25052,35.6413 23.2127,0.01 0.0447,-6.35681 -14.59966,-0.007 0.0634,-9.01061 10.5374,0.005 1.08226,-6.23292 -11.57573,-0.005 0.054,-7.6837 13.86647,0.006 0.0447,-6.35681 z m 108.09173,0.0457 -13.62835,35.63562 8.55208,0.004 2.74786,-8.5466 11.42306,0.005 2.56661,8.54885 8.70478,0.004 -12.73026,-35.64679 z m 50.9763,0.0216 -0.2505,35.6413 8.64369,0.004 0.25051,-35.64129 z m 18.96732,0.008 c -1.72166,7.58431 -3.70954,12.48689 -9.88265,15.4867 l -0.005,0.64803 11.83577,19.50748 9.62099,0.004 -12.08557,-18.73615 c 3.7745,-2.94814 7.01686,-6.95204 9.06797,-16.90654 z m -249.08679,5.44904 1.92419,8.1e-4 c 3.54532,0.002 4.62701,2.21302 4.60849,4.84672 -0.0224,3.21312 -1.95046,4.7205 -4.40084,4.71947 l -2.19909,-9.4e-4 z m 148.56079,0.12462 c 0.38698,-0.008 0.83965,3.5e-4 1.28281,5.3e-4 3.07592,9.4e-4 4.35484,1.8261 4.33446,4.72318 -0.0247,3.52916 -2.0486,4.59701 -4.18616,4.59611 l -2.41287,-9.4e-4 0.0651,-9.25747 c 0.20873,-0.0263 0.5298,-0.0526 0.91673,-0.0613 z m 34.12388,3.31627 c 0.76391,2.58137 2.29586,7.58774 3.67452,11.69688 l -7.5135,-0.003 c 1.43615,-4.05528 3.03807,-9.00767 3.83899,-11.6937 z m -32.82281,11.46542 c 3.96235,0.002 5.23611,2.46016 5.21763,5.09384 -0.0243,3.47652 -2.19464,4.47354 -5.00996,4.47234 l -2.59615,-9.4e-4 0.0666,-9.47349 c 0.46958,-0.0524 1.38346,-0.0919 2.3219,-0.0916 z"
       id="text3769-4-2-0-2"
       style="font-size:40px;font-style:normal;font-weight:normal;line-height:125%;letter-spacing:0px;word-spacing:0px;fill:#944b4f;fill-opacity:1;stroke:none;font-family:Sans"
       inkscape:connector-curvature="0"
       sodipodi:nodetypes="ccccccccccsccccsccccccccccccccccccccccccccccccccccccccccccccccccccccccccccccccccccccccccsccccccscccccccsccccccsccccccccsccccsscccccccccccccsccccccscscccccccccccccccccccccccccccccccccccccccccccccccccccccccccccccccccccscccccccccccccccccccccc" />
    <path
       d="m 112.81759,488.6495 -0.009,16.30463 14.41797,-0.0618 -0.3967,56.43976 16.61552,0.008 0.39671,-56.43978 36.16778,0.009 5.46542,-16.03362 z m 261.39466,22.8897 c -14.66995,-0.007 -21.82289,10.84164 -21.92861,25.88087 -0.10929,15.54783 6.3753,24.41164 21.11692,24.4179 5.8249,0.003 10.43794,-1.19829 13.39499,-2.43215 l -2.53886,-8.14767 c -2.66839,1.08866 -6.01141,2.06496 -9.39124,2.06352 -7.62252,-0.003 -9.84807,-6.81765 -9.77859,-16.69849 0.0725,-10.31679 2.8812,-16.56973 9.06556,-16.5671 2.51688,9.4e-4 4.90788,0.86768 7.54559,4.1382 l 6.52177,-6.63177 c -2.71064,-3.12527 -6.31298,-6.02006 -14.00748,-6.02332 z m -219.853,0.52408 -0.34596,49.21893 11.91172,0.005 0.14813,-21.07619 16.79877,0.008 -0.14814,21.07619 11.82007,0.005 0.34597,-49.21891 -11.82007,-0.005 -0.13578,19.31726 -16.79877,-0.008 0.13578,-19.31728 z m 49.44918,0.0209 -0.34596,49.21894 32.00908,0.0135 0.0618,-8.7946 -20.09728,-0.008 0.0874,-12.43588 14.50805,0.007 1.46571,-8.63972 -15.91287,-0.007 0.0742,-10.55353 19.08949,0.008 0.0618,-8.79461 z m 56.07698,0.0238 -0.34594,49.21892 11.85059,0.005 0.14816,-21.07618 16.85983,0.008 -0.14813,21.0762 11.78952,0.005 0.34596,-49.21892 -11.78954,-0.005 -0.13578,19.31727 -16.85984,-0.008 0.1358,-19.31726 z m 63.37677,0.0269 -18.85503,49.21108 11.82008,0.005 3.84029,-11.87884 15.72962,0.007 3.52058,11.88196 12.00331,0.005 -17.5217,-49.22649 z m 70.34057,0.0298 -0.34596,49.21891 11.85061,0.005 0.34596,-49.21891 z m 26.17537,0.0111 c -2.3747,10.46113 -5.197,17.27224 -13.71163,21.40991 l -0.006,0.83317 16.39531,26.97714 13.19458,0.006 -16.61669,-25.89719 c 5.20621,-4.06641 9.70476,-9.59326 12.53391,-23.3236 z m -91.62399,12.2737 c 1.0537,3.56049 3.17671,10.53499 5.07845,16.20278 l -10.41524,-0.005 c 1.98094,-5.59352 4.23201,-12.49351 5.33673,-16.19838 z m -202.50451,43.97999 c -6.20419,-0.003 -11.6952,3.94098 -11.73924,10.20915 -0.04,5.68877 3.42135,8.58211 9.45133,11.113 3.06711,1.26549 4.9317,2.31849 4.91392,4.84685 -0.0177,2.52839 -1.38396,3.91843 -4.30358,3.91719 -2.76314,-9.4e-4 -7.44903,-2.95968 -8.4348,-3.64486 l -2.85377,6.23218 c 2.49177,1.52861 6.95187,3.76766 12.37398,3.76995 7.61171,0.003 12.46748,-5.18026 12.513,-11.65916 0.0378,-5.37271 -2.67383,-7.87577 -8.23568,-10.24845 -4.41822,-1.89813 -6.02129,-3.20854 -6.1614,-5.52625 0.0107,-1.52754 1.22447,-2.6533 3.62274,-2.65229 2.65887,9.4e-4 5.88349,1.97686 7.49341,2.87301 l 3.09485,-5.76922 c -2.33462,-1.63387 -6.72972,-3.45897 -11.73476,-3.4611 z m 160.80901,0.0681 c -6.20419,-0.003 -11.72572,3.94095 -11.76978,10.20913 -0.04,5.68877 3.45193,8.58213 9.4819,11.11302 3.06711,1.26547 4.9317,2.31849 4.91391,4.84685 -0.0178,2.52835 -1.38398,3.91842 -4.30358,3.91718 -2.76313,-9.4e-4 -7.47957,-2.95969 -8.46537,-3.64487 l -2.85375,6.23218 c 2.49176,1.52862 6.98242,3.76768 12.40453,3.76998 7.61171,0.003 12.43693,-5.1803 12.48247,-11.65918 0.0378,-5.37272 -2.67384,-7.87577 -8.2357,-10.24844 -4.4182,-1.89815 -5.99074,-3.20854 -6.13087,-5.52626 0.0107,-1.52754 1.19395,-2.65331 3.59222,-2.65229 2.65886,9.4e-4 5.91402,1.97686 7.52393,2.87302 l 3.06432,-5.76923 c -2.33462,-1.63388 -6.69922,-3.45896 -11.70422,-3.46114 z m 107.02276,0.0454 c -10.63572,-0.005 -15.78512,7.88257 -15.86176,18.78602 -0.0792,11.27218 4.64289,17.65295 15.33068,17.65746 4.22302,0.002 7.51991,-0.82943 9.66377,-1.72396 l -1.82168,-5.89472 c -1.93458,0.78928 -4.34054,1.47937 -6.79094,1.47832 -5.52626,-0.002 -7.17306,-4.99756 -7.1227,-12.16121 0.0526,-7.47966 2.0756,-11.97216 6.55928,-11.97025 1.82474,7.7e-4 3.56411,0.65529 5.47649,3.02642 l 4.73767,-4.84275 c -1.96523,-2.26581 -4.59226,-4.35296 -10.17078,-4.35533 z m -213.77343,0.31065 c -2.29396,-9.4e-4 -9.64428,0.0885 -10.84341,0.0879 l -0.25052,35.6413 8.58263,0.004 0.10607,-15.0897 0.91627,4e-4 c 3.59747,0.002 4.67295,5.24169 9.08738,15.09357 l 9.22397,0.004 c -3.58878,-8.64006 -5.49416,-14.20295 -9.59621,-16.57499 3.66096,-1.63135 6.04841,-4.46908 6.07989,-8.94636 0.047,-6.68957 -4.44302,-10.216 -13.30609,-10.21975 z m 147.64495,0.0625 c -2.18969,-9.4e-4 -9.59214,0.0885 -10.84341,0.0879 l -0.25051,35.6413 c 1.51196,6.4e-4 8.28085,0.0652 10.26202,0.066 9.95778,0.004 14.99006,-3.40752 15.03635,-9.99174 0.0285,-4.05589 -2.43305,-7.1447 -7.63589,-8.67442 4.38975,-1.47302 6.71927,-4.31508 6.74444,-7.89688 0.04,-5.68879 -4.5542,-9.22858 -13.31301,-9.23229 z m -188.11511,0.0129 -0.0447,6.3568 8.39939,0.004 -0.20584,29.28449 8.64369,0.004 0.20585,-29.2845 8.09399,0.004 1.14423,-6.35632 z m 60.87226,0.0257 -0.25051,35.64129 8.64369,0.004 0.2505,-35.6413 z m 15.08829,0.007 -0.25051,35.64131 8.61315,0.004 0.25052,-35.64131 z m 18.93677,0.008 c -1.72166,7.5843 -3.70953,12.48688 -9.88264,15.4867 l -0.005,0.64803 11.83576,19.50748 9.59044,0.004 -12.05499,-18.73611 c 3.77449,-2.94816 7.07792,-6.95204 9.12904,-16.90653 z m 14.32458,0.006 -0.25052,35.6413 23.2127,0.01 0.0447,-6.35681 -14.59967,-0.007 0.0634,-9.01061 10.5374,0.005 1.08226,-6.23293 -11.57573,-0.005 0.054,-7.6837 13.86647,0.006 0.0447,-6.35681 z m 108.09173,0.0457 -13.62835,35.63562 8.55208,0.004 2.74787,-8.5466 11.42305,0.005 2.56661,8.54885 8.70478,0.004 -12.73026,-35.64678 z m 50.9763,0.0216 -0.2505,35.64129 8.64369,0.004 0.25051,-35.64129 z m 18.96732,0.008 c -1.72166,7.58431 -3.70954,12.48689 -9.88265,15.4867 l -0.005,0.64803 11.83577,19.50748 9.62099,0.004 -12.08557,-18.73614 c 3.7745,-2.94814 7.01687,-6.95204 9.06797,-16.90654 z m -249.08679,5.44904 1.92419,8.1e-4 c 3.54532,0.002 4.62701,2.21302 4.60849,4.84672 -0.0225,3.21312 -1.95046,4.7205 -4.40084,4.71947 l -2.19909,-9.4e-4 z m 148.56079,0.12462 c 0.38698,-0.008 0.83965,3.5e-4 1.28281,5.3e-4 3.07592,9.4e-4 4.35484,1.8261 4.33447,4.72318 -0.0247,3.52916 -2.04861,4.597 -4.18617,4.59611 l -2.41287,-9.4e-4 0.0651,-9.25747 c 0.20873,-0.0263 0.52981,-0.0526 0.91673,-0.0613 z m 34.12389,3.31627 c 0.7639,2.58137 2.29586,7.58773 3.67451,11.69688 l -7.5135,-0.003 c 1.43615,-4.05528 3.03808,-9.00767 3.839,-11.6937 z m -32.82282,11.46542 c 3.96235,0.002 5.23611,2.46016 5.21763,5.09384 -0.0243,3.47652 -2.19464,4.47354 -5.00996,4.47234 l -2.59615,-9.4e-4 0.0666,-9.47349 c 0.46958,-0.0524 1.38346,-0.0919 2.3219,-0.0916 z"
       id="text3769-4-2-0-2-4"
       style="font-size:40px;font-style:normal;font-weight:normal;line-height:125%;letter-spacing:0px;word-spacing:0px;fill:#944b4f;fill-opacity:1;stroke:none;font-family:Sans"
       inkscape:connector-curvature="0"
       sodipodi:nodetypes="ccccccccccsccccsccccccccccccccccccccccccccccccccccccccccccccccccccccccccccccccccccccccccsccccccscccccccsccccccsccccccccsccccsscccccccccccccsccccccscscccccccccccccccccccccccccccccccccccccccccccccccccccccccccccccccccccscccccccccccccccccccccc" />
    <path
       d="m 112.84182,488.19447 -0.009,16.30463 14.41797,-0.0618 -0.39671,56.43975 16.61552,0.008 0.39671,-56.43978 36.16776,0.009 5.46542,-16.03362 z m 261.39464,22.88971 c -14.66994,-0.007 -21.82288,10.84163 -21.92861,25.88086 -0.10928,15.54784 6.3753,24.41165 21.11692,24.4179 5.8249,0.003 10.43794,-1.19828 13.39499,-2.43214 l -2.53886,-8.14767 c -2.66839,1.08866 -6.01141,2.06496 -9.39123,2.06352 -7.62252,-0.003 -9.84807,-6.81765 -9.7786,-16.6985 0.0725,-10.31678 2.8812,-16.56972 9.06557,-16.56709 2.51687,9.3e-4 4.90787,0.86767 7.54559,4.13819 l 6.52176,-6.63176 c -2.71064,-3.12527 -6.31298,-6.02006 -14.00748,-6.02332 z m -219.85297,0.52408 -0.34597,49.21893 11.91171,0.005 0.14813,-21.07619 16.79877,0.008 -0.14814,21.0762 11.82006,0.005 0.34597,-49.21891 -11.82007,-0.005 -0.13578,19.31726 -16.79877,-0.008 0.13578,-19.31729 z m 49.44915,0.0209 -0.34596,49.21894 32.00908,0.0135 0.0618,-8.7946 -20.09729,-0.008 0.0874,-12.43588 14.50805,0.007 1.4657,-8.63971 -15.91286,-0.007 0.0742,-10.55353 19.08949,0.008 0.0618,-8.79461 z m 56.07699,0.0238 -0.34595,49.21893 11.85059,0.005 0.14816,-21.07617 16.85983,0.008 -0.14813,21.0762 11.78952,0.005 0.34596,-49.21892 -11.78954,-0.005 -0.13578,19.31727 -16.85983,-0.008 0.13579,-19.31725 z m 63.37676,0.0269 -18.85503,49.21109 11.82008,0.005 3.84029,-11.87885 15.72963,0.007 3.52058,11.88196 12.0033,0.005 -17.5217,-49.22649 z m 70.34057,0.0298 -0.34595,49.21891 11.8506,0.005 0.34597,-49.21892 z m 26.17537,0.0111 c -2.37469,10.46113 -5.197,17.27224 -13.71163,21.40991 l -0.006,0.83316 16.39531,26.97715 13.19458,0.006 -16.61669,-25.8972 c 5.20622,-4.0664 9.70476,-9.59325 12.53391,-23.32359 z m -91.62399,12.2737 c 1.0537,3.56049 3.17671,10.53499 5.07845,16.20278 l -10.41524,-0.005 c 1.98095,-5.59352 4.23202,-12.49351 5.33673,-16.19838 z m -202.50449,43.97999 c -6.20419,-0.003 -11.6952,3.94098 -11.73924,10.20915 -0.04,5.68876 3.42135,8.58211 9.45133,11.113 3.06711,1.26549 4.9317,2.31849 4.91392,4.84685 -0.0177,2.52838 -1.38396,3.91842 -4.30358,3.91718 -2.76314,-9.4e-4 -7.44903,-2.95967 -8.4348,-3.64485 l -2.85377,6.23217 c 2.49177,1.52861 6.95187,3.76767 12.37398,3.76996 7.61171,0.003 12.46749,-5.18026 12.513,-11.65916 0.0378,-5.37272 -2.67383,-7.87577 -8.23567,-10.24845 -4.41822,-1.89814 -6.0213,-3.20854 -6.16141,-5.52626 0.0107,-1.52754 1.22448,-2.6533 3.62275,-2.65228 2.65886,9.4e-4 5.88348,1.97686 7.4934,2.873 l 3.09486,-5.76921 c -2.33463,-1.63387 -6.72973,-3.45898 -11.73477,-3.4611 z m 160.80899,0.0681 c -6.20419,-0.003 -11.72572,3.94095 -11.76978,10.20914 -0.04,5.68877 3.45193,8.58212 9.4819,11.11302 3.06712,1.26547 4.93171,2.31849 4.91391,4.84685 -0.0178,2.52835 -1.38398,3.91842 -4.30357,3.91718 -2.76313,-9.4e-4 -7.47958,-2.95969 -8.46538,-3.64487 l -2.85375,6.23218 c 2.49177,1.52862 6.98242,3.76768 12.40454,3.76997 7.61171,0.003 12.43692,-5.18029 12.48246,-11.65918 0.0378,-5.37271 -2.67384,-7.87576 -8.23569,-10.24844 -4.4182,-1.89814 -5.99075,-3.20853 -6.13088,-5.52625 0.0107,-1.52754 1.19396,-2.65331 3.59223,-2.65229 2.65886,9.4e-4 5.91401,1.97686 7.52392,2.87302 l 3.06432,-5.76923 c -2.33462,-1.63389 -6.69921,-3.45896 -11.70422,-3.46114 z m 107.02277,0.0454 c -10.63573,-0.005 -15.78513,7.88257 -15.86177,18.78602 -0.0792,11.27218 4.64289,17.65295 15.33069,17.65746 4.22301,0.002 7.5199,-0.82943 9.66376,-1.72397 l -1.82168,-5.89471 c -1.93458,0.78928 -4.34054,1.47937 -6.79093,1.47831 -5.52627,-0.002 -7.17307,-4.99755 -7.12271,-12.1612 0.0526,-7.47966 2.0756,-11.97216 6.55928,-11.97026 1.82474,7.7e-4 3.56412,0.6553 5.47649,3.02643 l 4.73767,-4.84275 c -1.96523,-2.26582 -4.59226,-4.35297 -10.17078,-4.35533 z m -213.77343,0.31065 c -2.29397,-9.4e-4 -9.64429,0.0885 -10.84342,0.0879 l -0.25052,35.6413 8.58263,0.004 0.10607,-15.08969 0.91627,3.9e-4 c 3.59747,0.002 4.67295,5.24169 9.08738,15.09358 l 9.22398,0.004 c -3.58879,-8.64005 -5.49417,-14.20294 -9.59622,-16.57498 3.66097,-1.63135 6.04841,-4.46908 6.07989,-8.94636 0.047,-6.68958 -4.44302,-10.216 -13.30608,-10.21976 z m 147.64494,0.0626 c -2.18969,-9.4e-4 -9.59213,0.0885 -10.84341,0.0879 l -0.25051,35.6413 c 1.51197,6.4e-4 8.28085,0.0652 10.26202,0.066 9.95779,0.004 14.99006,-3.40752 15.03636,-9.99175 0.0285,-4.05588 -2.43306,-7.14469 -7.6359,-8.67442 4.38976,-1.47301 6.71927,-4.31507 6.74445,-7.89687 0.04,-5.68879 -4.55421,-9.22859 -13.31302,-9.2323 z m -188.11509,0.0129 -0.0447,6.3568 8.39939,0.004 -0.20584,29.28448 8.64369,0.004 0.20585,-29.2845 8.09397,0.004 1.14423,-6.35633 z m 60.87224,0.0257 -0.25051,35.64129 8.64369,0.004 0.2505,-35.6413 z m 15.0883,0.007 -0.25052,35.6413 8.61315,0.004 0.25052,-35.64131 z m 18.93677,0.008 c -1.72167,7.5843 -3.70953,12.48688 -9.88265,15.4867 l -0.005,0.64802 11.83577,19.50749 9.59044,0.004 -12.055,-18.73611 c 3.77449,-2.94816 7.07792,-6.95203 9.12904,-16.90652 z m 14.32457,0.006 -0.25052,35.6413 23.2127,0.01 0.0447,-6.35681 -14.59967,-0.007 0.0634,-9.01062 10.53739,0.005 1.08227,-6.23293 -11.57574,-0.005 0.054,-7.6837 13.86646,0.006 0.0447,-6.35681 z m 108.09173,0.0457 -13.62835,35.63562 8.55208,0.004 2.74787,-8.54659 11.42306,0.005 2.56661,8.54884 8.70477,0.004 -12.73026,-35.64678 z m 50.9763,0.0216 -0.2505,35.64129 8.64369,0.004 0.25051,-35.64129 z m 18.96733,0.008 c -1.72167,7.58432 -3.70954,12.4869 -9.88265,15.48671 l -0.005,0.64802 11.83578,19.50749 9.62099,0.004 -12.08558,-18.73615 c 3.7745,-2.94814 7.01687,-6.95203 9.06797,-16.90653 z m -249.08679,5.44905 1.92419,8.1e-4 c 3.54532,0.002 4.627,2.21302 4.60848,4.84672 -0.0224,3.21311 -1.95046,4.7205 -4.40084,4.71947 l -2.19909,-9.4e-4 z m 148.56078,0.12461 c 0.38698,-0.008 0.83965,3.6e-4 1.28281,5.4e-4 3.07592,9.4e-4 4.35484,1.8261 4.33447,4.72318 -0.0247,3.52915 -2.04861,4.597 -4.18617,4.59611 l -2.41287,-9.4e-4 0.0651,-9.25747 c 0.20872,-0.0263 0.5298,-0.0526 0.91672,-0.0613 z m 34.12389,3.31628 c 0.7639,2.58137 2.29586,7.58773 3.67452,11.69688 l -7.51351,-0.003 c 1.43615,-4.05527 3.03808,-9.00766 3.839,-11.69369 z m -32.82282,11.46542 c 3.96236,0.002 5.23611,2.46016 5.21763,5.09384 -0.0243,3.47651 -2.19464,4.47354 -5.00996,4.47233 l -2.59615,-9.3e-4 0.0666,-9.47349 c 0.46958,-0.0524 1.38347,-0.0919 2.3219,-0.0916 z"
       id="text3769-4-2"
       style="font-size:40px;font-style:normal;font-weight:normal;line-height:125%;letter-spacing:0px;word-spacing:0px;fill:#db4b4f;fill-opacity:1;stroke:none;font-family:Sans"
       inkscape:connector-curvature="0"
       sodipodi:nodetypes="ccccccccccsccccsccccccccccccccccccccccccccccccccccccccccccccccccccccccccccccccccccccccccsccccccscccccccsccccccsccccccccsccccsscccccccccccccsccccccscscccccccccccccccccccccccccccccccccccccccccccccccccccccccccccccccccccscccccccccccccccccccccc" />
    <path
       style="fill:#cccccc;fill-opacity:1;stroke:none"
       d="m 189.1875,18.96875 -13.34375,40.59375 0,-0.09375 -1.21875,3.6875 1.21875,0 14.65625,0 2.8125,-7.9375 13.09375,0 2.8125,7.9375 4.53125,0 6.0625,-18.34375 -8.65625,-25.84375 -21.96875,0 z m 60.15625,0 c -1.13027,1.6e-5 -2.22244,0.02921 -3.3125,0.125 L 233,58.78125 c 1.03032,0.680266 2.12596,1.287923 3.3125,1.8125 3.87715,1.69371 8.23578,2.5625 13.03125,2.5625 l 19.59375,0 0,-13.15625 -13.8125,0 c -2.81608,0 -4.9466,-0.07585 -6.375,-0.21875 -1.42846,-0.14283 -2.84072,-0.41393 -4.1875,-0.78125 -1.34683,-0.36729 -2.46759,-1.0964 -3.40625,-2.21875 -0.9387,-1.12232 -1.46048,-2.98174 -1.5625,-5.59375 0.14282,-2.69359 0.66461,-4.59511 1.5625,-5.65625 0.89785,-1.06109 1.89933,-1.79019 3.0625,-2.21875 1.16313,-0.4285 2.51033,-0.72257 4,-0.90625 1.48962,-0.18363 3.80448,-0.28125 6.90625,-0.28125 l 13.8125,0 0,-13.15625 -7.46875,0 -12.125,0 z m 21.4375,0 0,43.875 14.375,-43.71875 0,-0.15625 -14.375,0 z m 32.1875,0 -5.25,16.03125 11.9375,-16.03125 -6.6875,0 z m -102.75,9.78125 5.84375,17.5 -12.1875,0 6.34375,-17.5 z M 295,43.28125 290.65625,56.5 l 5.625,6.65625 6.6875,0 0,0.09375 24.59375,0 L 331.90625,50 313.75,50 302.96875,50 300.5,50 295,43.28125 z m -121.8125,24.25 -5.375,16.3125 39.15625,0 5.34375,-16.3125 -39.125,0 z m 56.90625,0 -5.34375,16.3125 39.125,0 5.375,-16.3125 -39.15625,0 z m 56.90625,0 -5.34375,16.3125 39.125,0 5.375,-16.3125 -39.15625,0 z m -154,122.1875 -5.375,16.3125 39.15625,0 5.375,-16.3125 -39.15625,0 z m 56.9375,0 -5.375,16.3125 39.15625,0 5.34375,-16.3125 -39.125,0 z m 56.90625,0 -5.375,16.3125 39.15625,0 5.34375,-16.3125 -39.125,0 z m -86.0625,20.15625 c -1.4488,2e-5 -2.86882,0.12464 -4.25,0.28125 l -30.25,0 -4.34375,13.21875 14.71875,0 c -0.93808,2.38341 -1.40625,5.0514 -1.40625,7.96875 0,4.9383 1.08823,9.12344 3.3125,12.53125 2.24467,3.40783 5.31032,5.94214 9.1875,7.65625 1.17314,0.51248 2.39617,0.92219 3.65625,1.28125 l 4.25,-13 c -1.19478,-0.39524 -2.23858,-1.10249 -3.09375,-2.125 -0.9387,-1.12233 -1.42924,-2.98175 -1.53125,-5.59375 0.14282,-2.69359 0.63337,-4.56386 1.53125,-5.625 0.89786,-1.06109 1.93058,-1.82144 3.09375,-2.25 1.16313,-0.4285 2.51032,-0.72256 4,-0.90625 0.42334,-0.0522 0.91403,-0.0856 1.46875,-0.125 l 4.375,-13.3125 -4.71875,0 z m 22.5,0 -1.0625,3.28125 0,40.9375 25.6875,0 4.3125,-13.15625 -15.625,0 0,-31.0625 -13.3125,0 z m 37.5625,0 0,4.875 1.59375,-4.875 -1.59375,0 z m 29.5,0 0,26.15625 c 0.0816,2.89769 -0.61369,4.93189 -2.0625,6.15625 -1.44886,1.22437 -3.24322,1.86545 -5.40625,1.90625 -2.69362,-0.0816 -4.67234,-0.71185 -5.9375,-1.875 -1.26519,-1.16314 -1.8412,-3.20819 -1.71875,-6.1875 l 0,-11 -8.28125,25.1875 c 0.1379,0.10432 0.26402,0.2121 0.40625,0.3125 2.10183,1.46925 4.54809,2.55619 7.34375,3.25 2.81603,0.6734 5.59847,1.03254 8.3125,1.09375 3.26497,-0.0816 6.22217,-0.52751 8.875,-1.34375 2.67317,-0.81625 4.90128,-1.96826 6.65625,-3.4375 1.77529,-1.46924 3.23222,-3.28528 4.375,-5.46875 1.16311,-2.20386 1.75124,-5.17063 1.8125,-8.84375 l 0,-25.90625 -14.375,0 z m 16.5625,0 0,37.84375 12.4375,-37.84375 -12.4375,0 z m -86.53125,8.875 -1.40625,4.28125 1.40625,0 0,-4.28125 z m -7.28125,22.1875 -4.34375,13.15625 11.625,0 0,-13.15625 -7.28125,0 z"
       transform="translate(48.572426,420.5799)"
       id="rect3371-1"
       inkscape:connector-curvature="0" />
  </g>
</svg>
